#!OML:ASF X:\für Bonn\!DataBase\2005_08_10_Bjorn_Final\c3d\bjorn.ASF
:FULLY-SPECIFIED
:DEGREES
736
root -1.33042 1.45829 21.3816 -443.93 -173.957 8.7711
lowerback -7.72294 -0.668125 -7.22462
upperback 1.85929 -0.0890248 -4.60003
thorax 6.31142 -0.308186 -0.80049
lowerneck -13.5181 -5.34365 -0.963828
upperneck 0.708244 -7.64939 5.43537
head 2.87235 -3.76823 1.42205
rclavicle 3.49861e-014 -7.59357e-014
rhumerus -319.768 -134.65 277.316
rradius 12.0143
rwrist 146.366
rhand -16.1764 10.1022
rfingers 7.12502
rthumb 10.03 -19.6388
lclavicle 3.49861e-014 -7.59357e-014
lhumerus -377.412 17.9563 -324.038
lradius 7.68547
lwrist -78.1984
lhand -14.6114 -7.75078
lfingers 7.12502
lthumb 11.5395 21.9116
rfemur -195.858 -155.235 186.59
rtibia 31.5664
rfoot 4.05163 -11.909
rtoes 15.0383
lfemur -14.0133 2.72872 -22.8898
ltibia 22.0611
lfoot 11.1498 3.51531
ltoes -7.06481
737
root -1.33121 1.45817 21.3811 -443.942 -173.976 8.75092
lowerback -7.71731 -0.673196 -7.23463
upperback 1.86589 -0.0944837 -4.56267
thorax 6.31558 -0.311128 -0.756194
lowerneck -13.5194 -5.34097 -1.0304
upperneck 0.695754 -7.63334 5.44634
head 2.8716 -3.75971 1.43859
rclavicle 2.70347e-014 1.21259e-014
rhumerus -316.468 -131.803 273.262
rradius 11.7055
rwrist 142.154
rhand -16.2813 9.47846
rfingers 7.12502
rthumb 9.9288 -20.2674
lclavicle 2.70347e-014 1.21259e-014
lhumerus -377.428 20.4631 -324.787
lradius 7.81004
lwrist -78.4173
lhand -13.7415 -7.49704
lfingers 7.12502
lthumb 12.3784 22.1165
rfemur -195.841 -155.243 186.6
rtibia 31.5667
rfoot 4.06424 -11.9031
rtoes 15.0848
lfemur -13.9732 2.65886 -22.8499
ltibia 22.052
lfoot 11.0176 3.80248
ltoes -6.98501
738
root -1.33084 1.45824 21.3804 -443.971 -173.978 8.74002
lowerback -7.6729 -0.671126 -7.2537
upperback 1.85605 -0.0958315 -4.55736
thorax 6.27978 -0.31167 -0.739131
lowerneck -13.4895 -5.33218 -1.00324
upperneck 0.681898 -7.62294 5.42026
head 2.85813 -3.75577 1.42695
rclavicle 2.8625e-014 -2.68359e-014
rhumerus -312.29 -129 268.236
rradius 11.4509
rwrist 137.829
rhand -16.4593 8.79801
rfingers 7.12502
rthumb 9.75703 -20.956
lclavicle 2.8625e-014 -2.68359e-014
lhumerus -377.482 22.904 -325.624
lradius 7.96078
lwrist -78.4894
lhand -12.9036 -7.2217
lfingers 7.12502
lthumb 13.1862 22.3413
rfemur -195.8 -155.289 186.583
rtibia 31.5668
rfoot 3.98888 -11.9516
rtoes 15.2739
lfemur -13.927 2.67503 -22.8335
ltibia 22.0436
lfoot 10.936 3.95629
ltoes -7.22302
739
root -1.33124 1.45828 21.3805 -443.973 -173.994 8.7303
lowerback -7.67629 -0.685856 -7.27119
upperback 1.85897 -0.112391 -4.52217
thorax 6.28576 -0.320171 -0.69452
lowerneck -13.4947 -5.31877 -1.00196
upperneck 0.684061 -7.59875 5.36655
head 2.8561 -3.74428 1.41075
rclavicle 3.81667e-014 9.44227e-015
rhumerus -307.81 -126.534 262.946
rradius 11.3241
rwrist 133.927
rhand -16.6509 8.17781
rfingers 7.12502
rthumb 9.5722 -21.5847
lclavicle 3.81667e-014 9.44227e-015
lhumerus -377.583 25.4112 -326.428
lradius 8.09541
lwrist -78.5476
lhand -12.1412 -6.8177
lfingers 7.12502
lthumb 13.9209 22.6963
rfemur -195.79 -155.32 186.6
rtibia 31.5617
rfoot 3.94652 -11.9852
rtoes 15.3127
lfemur -13.9096 2.66599 -22.8025
ltibia 22.036
lfoot 10.8672 4.1038
ltoes -7.5589
740
root -1.33202 1.4581 21.3799 -443.994 -174.014 8.72249
lowerback -7.64845 -0.679075 -7.2616
upperback 1.85527 -0.107726 -4.50889
thorax 6.26556 -0.316984 -0.684569
lowerneck -13.4744 -5.32441 -1.04789
upperneck 0.68156 -7.60094 5.40426
head 2.85578 -3.74459 1.43154
rclavicle -7.95139e-015 -7.65321e-015
rhumerus -302.546 -124.397 256.831
rradius 11.2369
rwrist 130.008
rhand -16.8987 7.40374
rfingers 7.12502
rthumb 9.33309 -22.3697
lclavicle -7.95139e-015 -7.65321e-015
lhumerus -377.679 27.8582 -327.267
lradius 8.21363
lwrist -78.6704
lhand -11.4742 -6.45965
lfingers 7.12502
lthumb 14.5637 23.0091
rfemur -195.764 -155.304 186.609
rtibia 31.5552
rfoot 3.95459 -11.9849
rtoes 15.2116
lfemur -13.864 2.63994 -22.7674
ltibia 22.0283
lfoot 10.779 4.25803
ltoes -7.74991
741
root -1.33212 1.45797 21.3791 -444.024 -174.014 8.71116
lowerback -7.61108 -0.693452 -7.31257
upperback 1.85519 -0.125677 -4.46461
thorax 6.24532 -0.326931 -0.611201
lowerneck -13.4634 -5.31042 -1.08104
upperneck 0.680564 -7.5705 5.36775
head 2.85203 -3.72955 1.42791
rclavicle -1.90833e-014 4.13472e-014
rhumerus -297.027 -122.67 250.561
rradius 11.1987
rwrist 126.5
rhand -17.2318 6.53465
rfingers 7.12502
rthumb 9.0117 -23.2529
lclavicle -1.90833e-014 4.13472e-014
lhumerus -377.89 30.3413 -328.152
lradius 8.28544
lwrist -78.9419
lhand -11.0984 -6.12744
lfingers 7.12502
lthumb 14.9257 23.3148
rfemur -195.719 -155.37 186.588
rtibia 31.5491
rfoot 3.88226 -12.0256
rtoes 15.2942
lfemur -13.8151 2.58189 -22.7471
ltibia 22.0216
lfoot 10.6598 4.49362
ltoes -7.67947
